<svg width="24" height="24" viewBox="0 0 24 24" fill="none" xmlns="http://www.w3.org/2000/svg">
<g clip-path="url(#clip0_1503_1359)">
<path d="M23.391 16.207L20.978 6.817C19.864 2.803 16.172 0 12 0C7.59801 0 3.85501 3.002 2.90301 7.29L0.692011 16.359C0.495011 17.246 0.711011 18.164 1.28201 18.877C1.85401 19.591 2.70701 20 3.62201 20H7.10101C7.56601 22.279 9.58501 24 12 24C14.415 24 16.434 22.279 16.899 20H20.498C21.444 20 22.315 19.568 22.887 18.815C23.46 18.062 23.642 17.108 23.391 16.207ZM12 23C10.142 23 8.58901 21.721 8.14201 20H15.858C15.411 21.721 13.858 23 12 23ZM22.091 18.21C21.71 18.712 21.129 19 20.498 19H3.62301C3.01301 19 2.44401 18.728 2.06301 18.252C1.68201 17.776 1.53801 17.165 1.66701 16.586L3.87701 7.517C4.72901 3.68 8.07001 1 12 1C15.724 1 19.02 3.502 20.012 7.075L22.425 16.465C22.594 17.072 22.472 17.708 22.091 18.21Z" fill="#636363"/>
<g clip-path="url(#clip1_1503_1359)">
<path d="M7.5 21L9.5 13L12 12.5L15 13.5L16.5 16.5L16 21.5L14 23L11.5 23.5L9 22.5L7.5 21Z" fill="#80BCFF"/>
<path d="M19.5 5L23 17.5L21 19.5L2 19L1 16.5L4 5L9 1H14L17.5 2.5L19.5 5Z" fill="url(#paint0_linear_1503_1359)"/>
<path d="M23.391 16.207L20.978 6.817C19.864 2.803 16.172 0 12 0C7.59801 0 3.85501 3.002 2.90301 7.29L0.692011 16.359C0.495011 17.246 0.711011 18.164 1.28201 18.877C1.85401 19.591 2.70701 20 3.62201 20H7.10101C7.56601 22.279 9.58501 24 12 24C14.415 24 16.434 22.279 16.899 20H20.498C21.444 20 22.315 19.568 22.887 18.815C23.46 18.062 23.642 17.108 23.391 16.207ZM12 23C10.142 23 8.58901 21.721 8.14201 20H15.858C15.411 21.721 13.858 23 12 23ZM22.091 18.21C21.71 18.712 21.129 19 20.498 19H3.62301C3.01301 19 2.44401 18.728 2.06301 18.252C1.68201 17.776 1.53801 17.165 1.66701 16.586L3.87701 7.517C4.72901 3.68 8.07001 1 12 1C15.724 1 19.02 3.502 20.012 7.075L22.425 16.465C22.594 17.072 22.472 17.708 22.091 18.21Z" fill="white"/>
</g>
</g>
<defs>
<linearGradient id="paint0_linear_1503_1359" x1="7.5" y1="-1" x2="27" y2="19" gradientUnits="userSpaceOnUse">
<stop stop-color="#2B91FF"/>
<stop offset="1" stop-color="#017BFF"/>
</linearGradient>
<clipPath id="clip0_1503_1359">
<rect width="24" height="24" fill="white"/>
</clipPath>
<clipPath id="clip1_1503_1359">
<rect width="24" height="24" fill="white"/>
</clipPath>
</defs>
</svg>
