<svg width="26" height="27" viewBox="0 0 26 27" fill="none" xmlns="http://www.w3.org/2000/svg">
<path d="M3.35714 7.35294C3.35714 5.40282 4.20376 3.53257 5.71075 2.15363C7.21774 0.774683 9.26165 0 11.3929 0C13.5241 0 15.568 0.774683 17.075 2.15363C18.582 3.53257 19.4286 5.40282 19.4286 7.35294C19.4286 7.61296 19.3157 7.86232 19.1148 8.04618C18.9138 8.23004 18.6413 8.33333 18.3571 8.33333C18.073 8.33333 17.8005 8.23004 17.5995 8.04618C17.3986 7.86232 17.2857 7.61296 17.2857 7.35294C17.2857 5.92285 16.6649 4.55134 15.5597 3.54011C14.4546 2.52889 12.9557 1.96078 11.3929 1.96078C9.82997 1.96078 8.3311 2.52889 7.22598 3.54011C6.12085 4.55134 5.5 5.92285 5.5 7.35294C5.5 7.61296 5.38712 7.86232 5.18619 8.04618C4.98525 8.23004 4.71273 8.33333 4.42857 8.33333C4.14441 8.33333 3.87189 8.23004 3.67096 8.04618C3.47003 7.86232 3.35714 7.61296 3.35714 7.35294ZM22.1071 12.7451C21.4821 12.7445 20.8669 12.8873 20.3179 13.1605C20.1538 12.696 19.8832 12.2688 19.5243 11.9075C19.1654 11.5462 18.7264 11.2592 18.2365 11.0656C17.7467 10.872 17.2173 10.7763 16.6838 10.7848C16.1503 10.7934 15.625 10.906 15.1429 11.1152V7.35294C15.1429 6.44288 14.7478 5.5701 14.0445 4.92659C13.3412 4.28309 12.3874 3.92157 11.3929 3.92157C10.3983 3.92157 9.44447 4.28309 8.74121 4.92659C8.03794 5.5701 7.64286 6.44288 7.64286 7.35294V17.1569L7.13125 16.4056C6.63095 15.6189 5.8096 15.0463 4.84789 14.8137C3.88618 14.5811 2.86289 14.7077 2.00312 15.1654C1.14336 15.6232 0.517556 16.3748 0.263377 17.2548C0.00919807 18.1348 0.147467 19.0711 0.647767 19.8578L4.57455 25.9853C4.64041 26.1046 4.73225 26.2104 4.84442 26.2961C4.95659 26.3817 5.08672 26.4455 5.22682 26.4834C5.36691 26.5214 5.51401 26.5327 5.65907 26.5167C5.80413 26.5008 5.94408 26.4578 6.07033 26.3905C6.19657 26.3232 6.30644 26.233 6.39317 26.1254C6.47991 26.0178 6.54168 25.8951 6.57469 25.7649C6.6077 25.6347 6.61125 25.4996 6.58512 25.3681C6.559 25.2365 6.50375 25.1113 6.42277 25L2.5 18.8725C2.38987 18.7052 2.31729 18.5194 2.28651 18.326C2.25572 18.1327 2.26735 17.9357 2.32071 17.7465C2.37407 17.5573 2.46809 17.3798 2.59729 17.2242C2.72648 17.0687 2.88825 16.9382 3.07315 16.8405C3.25806 16.7428 3.46238 16.6798 3.6742 16.6552C3.88601 16.6305 4.10107 16.6448 4.30681 16.697C4.51255 16.7493 4.70484 16.8386 4.87245 16.9596C5.04007 17.0806 5.17965 17.231 5.28303 17.402L5.30178 17.4301L7.80357 21.1066C7.9264 21.288 8.11054 21.4277 8.32804 21.5046C8.54554 21.5816 8.78452 21.5914 9.00872 21.5328C9.23292 21.4742 9.4301 21.3502 9.57032 21.1797C9.71055 21.0093 9.78617 20.8016 9.78571 20.5882V7.35294C9.78571 6.96292 9.95504 6.58887 10.2564 6.31308C10.5578 6.03729 10.9666 5.88235 11.3929 5.88235C11.8191 5.88235 12.2279 6.03729 12.5293 6.31308C12.8307 6.58887 13 6.96292 13 7.35294V15.6863C13 15.9463 13.1129 16.1957 13.3138 16.3795C13.5147 16.5634 13.7873 16.6667 14.0714 16.6667C14.3556 16.6667 14.6281 16.5634 14.829 16.3795C15.03 16.1957 15.1429 15.9463 15.1429 15.6863V14.2157C15.1429 13.8257 15.3122 13.4516 15.6136 13.1758C15.915 12.9 16.3238 12.7451 16.75 12.7451C17.1762 12.7451 17.585 12.9 17.8864 13.1758C18.1878 13.4516 18.3571 13.8257 18.3571 14.2157V16.6667C18.3571 16.9267 18.47 17.1761 18.671 17.3599C18.8719 17.5438 19.1444 17.6471 19.4286 17.6471C19.7127 17.6471 19.9853 17.5438 20.1862 17.3599C20.3871 17.1761 20.5 16.9267 20.5 16.6667V16.1765C20.5 15.7864 20.6693 15.4124 20.9707 15.1366C21.2721 14.8608 21.6809 14.7059 22.1071 14.7059C22.5334 14.7059 22.9422 14.8608 23.2436 15.1366C23.545 15.4124 23.7143 15.7864 23.7143 16.1765V20.5882C23.7143 23.2365 22.7634 25.0368 22.7554 25.0515C22.6284 25.284 22.6076 25.5532 22.6975 25.7998C22.7875 26.0464 22.9807 26.2502 23.2348 26.3664C23.3835 26.4352 23.5477 26.4709 23.7143 26.4706C23.9133 26.4707 24.1085 26.4201 24.2779 26.3244C24.4472 26.2288 24.5841 26.0918 24.6732 25.9289C24.7228 25.8395 25.8585 23.723 25.8585 20.5882V16.1765C25.8585 15.7258 25.7614 15.2795 25.5729 14.8631C25.3844 14.4467 25.108 14.0683 24.7597 13.7497C24.4113 13.431 23.9977 13.1783 23.5426 13.0059C23.0875 12.8336 22.5997 12.7449 22.1071 12.7451Z" fill="currentColor"/>
</svg>
