<svg width="38" height="38" viewBox="0 0 38 38" fill="none" xmlns="http://www.w3.org/2000/svg">
<path d="M36.4166 35.625V37.2083C36.4166 37.6453 36.062 37.7863 35.625 37.7863C35.188 37.7863 34.8333 37.6453 34.8333 37.2083V35.625C34.8333 33.0331 33.2579 30.8323 30.723 29.8822L21.0868 26.0696C20.786 25.9508 20.5865 25.6579 20.5865 25.3333V16.7944C20.5865 15.5452 19.7394 14.4653 18.6152 14.2832C17.9059 14.1677 17.2124 14.3561 16.6725 14.8153C16.1405 15.2681 15.8349 15.9268 15.8349 16.625V31.5463C15.8349 32.2113 15.4628 32.8051 14.8627 33.0948C14.2626 33.383 13.5676 33.3054 13.0466 32.8922L10.374 30.7642C10.3629 30.7547 10.3581 30.742 10.3471 30.7325C10.3407 30.7262 10.3312 30.7262 10.3249 30.7198C9.3654 29.83 7.86598 29.8823 6.97615 30.8354C6.08156 31.7918 6.13065 33.3007 7.07748 34.1889L9.5 36.5C9.5 36.5 36.3359 36.5 35.625 36.5V37.7863H8.58165L5.98498 35.3353C4.40165 33.8517 4.32565 31.3484 5.81715 29.7556C7.28648 28.1817 9.74698 28.0868 11.343 29.5197C11.3477 29.5228 11.3541 29.5244 11.3588 29.5276L14.0315 31.6556L14.25 31.5495V16.625C14.25 15.4628 14.7582 14.3624 15.6449 13.6088C16.5316 12.8551 17.7111 12.5368 18.867 12.7189C20.748 13.0261 22.1666 14.7773 22.1666 16.7928V24.7934L31.2898 28.4034C34.4454 29.5862 36.4135 32.3554 36.4135 35.6234L36.4166 35.625ZM18.2083 7.91667C18.6453 7.91667 19 7.562 19 7.125V0.791667C19 0.354667 18.6453 0 18.2083 0C17.7713 0 17.4166 0.354667 17.4166 0.791667V7.125C17.4166 7.562 17.7713 7.91667 18.2083 7.91667ZM24.9264 10.6986C25.1291 10.6986 25.3317 10.621 25.4869 10.4674L29.9661 5.98817C30.2749 5.67942 30.2749 5.1775 29.9661 4.86875C29.6574 4.56 29.1555 4.56 28.8467 4.86875L24.3675 9.348C24.0587 9.65675 24.0587 10.1587 24.3675 10.4674C24.5226 10.6226 24.7253 10.6986 24.928 10.6986H24.9264ZM10.9313 10.4674C11.2401 10.7762 11.742 10.7762 12.0507 10.4674C12.3595 10.1587 12.3595 9.65675 12.0507 9.348L7.57148 4.86875C7.26273 4.56 6.76081 4.56 6.45206 4.86875C6.14331 5.1775 6.14331 5.67942 6.45206 5.98817L10.9313 10.4674ZM26.9166 16.625C26.9166 17.062 27.2713 17.4167 27.7083 17.4167H34.0416C34.4786 17.4167 34.8333 17.062 34.8333 16.625C34.8333 16.188 34.4786 15.8333 34.0416 15.8333H27.7083C27.2713 15.8333 26.9166 16.188 26.9166 16.625ZM9.49998 16.625C9.49998 16.188 9.14531 15.8333 8.70831 15.8333H2.37498C1.93798 15.8333 1.58331 16.188 1.58331 16.625C1.58331 17.062 1.93798 17.4167 2.37498 17.4167H8.70831C9.14531 17.4167 9.49998 17.062 9.49998 16.625Z" fill="white"/>
</svg>
