<svg width="26" height="25" viewBox="0 0 26 25" fill="none" xmlns="http://www.w3.org/2000/svg">
<path d="M25.5 12.5C25.5001 14.8438 24.8137 17.1364 23.5257 19.0946C22.2377 21.0528 20.4044 22.591 18.2522 23.5192C16.1 24.4474 13.7231 24.725 11.4149 24.3177C9.10674 23.9105 6.96835 22.8362 5.26375 21.2275C5.16821 21.1372 5.0914 21.029 5.03768 20.909C4.98397 20.789 4.95441 20.6597 4.95069 20.5283C4.94698 20.3969 4.96918 20.266 5.01603 20.1432C5.06288 20.0204 5.13347 19.908 5.22375 19.8125C5.40609 19.6195 5.6576 19.5069 5.92297 19.4994C6.05436 19.4957 6.1852 19.5179 6.30802 19.5648C6.43083 19.6116 6.54321 19.6822 6.63875 19.7725C8.06843 21.1213 9.86387 22.0188 11.8007 22.353C13.7376 22.6872 15.73 22.4432 17.529 21.6515C19.328 20.8598 20.8538 19.5555 21.9158 17.9016C22.9777 16.2477 23.5287 14.3175 23.4999 12.3522C23.4712 10.3869 22.8639 8.47372 21.754 6.85161C20.6441 5.2295 19.0807 3.97043 17.2593 3.23174C15.4379 2.49304 13.4392 2.30748 11.513 2.69822C9.58673 3.08897 7.81833 4.0387 6.42875 5.42874C5.9875 5.87499 5.5725 6.31374 5.16875 6.74999L7.2075 8.79249C7.34751 8.93235 7.44288 9.1106 7.48153 9.30469C7.52018 9.49877 7.50038 9.69996 7.42462 9.88279C7.34887 10.0656 7.22058 10.2218 7.05598 10.3317C6.89139 10.4416 6.6979 10.5002 6.5 10.5H1.5C1.23478 10.5 0.98043 10.3946 0.792893 10.2071C0.605357 10.0196 0.5 9.76521 0.5 9.5V4.49999C0.499845 4.3021 0.558409 4.10861 0.66828 3.94401C0.778151 3.77942 0.934387 3.65112 1.11721 3.57537C1.30003 3.49962 1.50122 3.47982 1.69531 3.51847C1.88939 3.55712 2.06764 3.65248 2.2075 3.79249L3.75 5.33749C4.1525 4.90124 4.5675 4.46249 5.0075 4.01874C6.68511 2.33828 8.82356 1.1933 11.1522 0.728718C13.4808 0.264141 15.8949 0.500857 18.089 1.4089C20.283 2.31695 22.1583 3.8555 23.4775 5.82983C24.7968 7.80415 25.5006 10.1255 25.5 12.5ZM13.5 5.49999C13.2348 5.49999 12.9804 5.60535 12.7929 5.79289C12.6054 5.98042 12.5 6.23478 12.5 6.49999V12.5C12.4999 12.6726 12.5446 12.8423 12.6296 12.9926C12.7146 13.1429 12.837 13.2686 12.985 13.3575L17.985 16.3575C18.0976 16.4251 18.2224 16.4699 18.3524 16.4893C18.4823 16.5087 18.6147 16.5023 18.7422 16.4705C18.8696 16.4387 18.9896 16.3821 19.0951 16.3039C19.2007 16.2258 19.2899 16.1276 19.3575 16.015C19.4251 15.9024 19.4699 15.7776 19.4893 15.6476C19.5087 15.5177 19.5023 15.3853 19.4705 15.2578C19.4387 15.1304 19.3821 15.0104 19.3039 14.9049C19.2258 14.7993 19.1276 14.7101 19.015 14.6425L14.5 11.9337V6.49999C14.5 6.23478 14.3946 5.98042 14.2071 5.79289C14.0196 5.60535 13.7652 5.49999 13.5 5.49999Z" fill="currentColor"/>
</svg>
