<svg width="24" height="24" viewBox="0 0 24 24" fill="none" xmlns="http://www.w3.org/2000/svg">
<g clip-path="url(#clip0_1458_848)">
<path d="M23 10.5L23.5 21.5L20.5 23.5H3L1 22.5L0.5 10L10 1H14L23 10.5Z" fill="url(#paint0_linear_1458_848)"/>
<path d="M16.5 16.5L16 23H7.5V15.6316L9.5 13L12 12.5L15 13.5L16.5 16.5Z" fill="#80BCFF"/>
<path d="M22.702 8.94802L15.01 1.15402C13.293 -0.387982 10.707 -0.388982 8.968 1.17502L1.297 8.94802C0.461 9.79702 0 10.919 0 12.109V20.5C0 22.43 1.57 24 3.5 24H20.5C22.43 24 24 22.43 24 20.5V12.109C24 10.919 23.539 9.79602 22.702 8.94802ZM16 23H8V17C8 14.794 9.794 13 12 13C14.206 13 16 14.794 16 17V23ZM23 20.5C23 21.879 21.879 23 20.5 23H17V17C17 14.243 14.757 12 12 12C9.243 12 7 14.243 7 17V23H3.5C2.122 23 1 21.879 1 20.5V12.109C1 11.183 1.358 10.31 2.009 9.65102L9.659 1.89802C10.329 1.29402 11.17 0.995018 12.008 0.995018C12.839 0.995018 13.666 1.29002 14.32 1.87802L21.991 9.65102C22.641 10.31 23 11.183 23 12.109V20.5Z" fill="white"/>
</g>
<defs>
<linearGradient id="paint0_linear_1458_848" x1="6" y1="1" x2="25.5" y2="21" gradientUnits="userSpaceOnUse">
<stop stop-color="#2B91FF"/>
<stop offset="1" stop-color="#017BFF"/>
</linearGradient>
<clipPath id="clip0_1458_848">
<rect width="24" height="24" fill="white"/>
</clipPath>
</defs>
</svg>
