<svg width="24" height="24" viewBox="0 0 24 24" fill="none" xmlns="http://www.w3.org/2000/svg">
<path d="M22.702 8.94826L15.01 1.15426C13.293 -0.387738 10.707 -0.388738 8.968 1.17526L1.297 8.94826C0.461 9.79726 0 10.9193 0 12.1093V20.5003C0 22.4303 1.57 24.0003 3.5 24.0003H20.5C22.43 24.0003 24 22.4303 24 20.5003V12.1093C24 10.9193 23.539 9.79626 22.702 8.94826ZM16 23.0003H8V17.0003C8 14.7943 9.794 13.0003 12 13.0003C14.206 13.0003 16 14.7943 16 17.0003V23.0003ZM23 20.5003C23 21.8793 21.879 23.0003 20.5 23.0003H17V17.0003C17 14.2433 14.757 12.0003 12 12.0003C9.243 12.0003 7 14.2433 7 17.0003V23.0003H3.5C2.122 23.0003 1 21.8793 1 20.5003V12.1093C1 11.1833 1.358 10.3103 2.009 9.65126L9.659 1.89826C10.329 1.29426 11.17 0.995262 12.008 0.995262C12.839 0.995262 13.666 1.29026 14.32 1.87826L21.991 9.65126C22.641 10.3103 23 11.1833 23 12.1093V20.5003Z" fill="#636363"/>
</svg>
