<svg width="27" height="27" viewBox="0 0 27 27" fill="none" xmlns="http://www.w3.org/2000/svg">
<path d="M13.5 0.5C10.9288 0.5 8.41543 1.26244 6.27759 2.6909C4.13975 4.11935 2.47351 6.14968 1.48957 8.52512C0.505633 10.9006 0.248189 13.5144 0.749797 16.0362C1.25141 18.5579 2.48953 20.8743 4.30762 22.6924C6.1257 24.5105 8.44208 25.7486 10.9638 26.2502C13.4856 26.7518 16.0995 26.4944 18.4749 25.5104C20.8503 24.5265 22.8807 22.8603 24.3091 20.7224C25.7376 18.5846 26.5 16.0712 26.5 13.5C26.4964 10.0533 25.1256 6.74882 22.6884 4.31163C20.2512 1.87445 16.9467 0.50364 13.5 0.5ZM18.5 14.5H8.50001C8.23479 14.5 7.98044 14.3946 7.7929 14.2071C7.60536 14.0196 7.50001 13.7652 7.50001 13.5C7.50001 13.2348 7.60536 12.9804 7.7929 12.7929C7.98044 12.6054 8.23479 12.5 8.50001 12.5H18.5C18.7652 12.5 19.0196 12.6054 19.2071 12.7929C19.3946 12.9804 19.5 13.2348 19.5 13.5C19.5 13.7652 19.3946 14.0196 19.2071 14.2071C19.0196 14.3946 18.7652 14.5 18.5 14.5Z" fill="currentColor"/>
</svg>
