<svg width="30" height="27" viewBox="0 0 30 27" fill="none" xmlns="http://www.w3.org/2000/svg">
<path d="M16.1111 6.00001V11.3813L21.1694 9.10501C21.433 8.98632 21.7381 8.96673 22.0178 9.05053C22.2974 9.13434 22.5285 9.31468 22.6604 9.55188C22.7923 9.78908 22.8141 10.0637 22.7209 10.3154C22.6278 10.567 22.4274 10.7751 22.1639 10.8938L15.4972 13.8938C15.3279 13.97 15.1397 14.0061 14.9505 13.9985C14.7613 13.9909 14.5774 13.9399 14.4163 13.8503C14.2551 13.7608 14.1221 13.6357 14.0298 13.4869C13.9375 13.338 13.889 13.1704 13.8889 13V6.00001C13.8889 5.73479 14.0059 5.48044 14.2143 5.2929C14.4227 5.10536 14.7053 5.00001 15 5.00001C15.2947 5.00001 15.5773 5.10536 15.7857 5.2929C15.994 5.48044 16.1111 5.73479 16.1111 6.00001ZM15 24C12.5827 24 10.2196 23.3549 8.20969 22.1462C6.19976 20.9375 4.6332 19.2195 3.70813 17.2095C2.78306 15.1995 2.54102 12.9878 3.01262 10.854C3.48421 8.72022 4.64827 6.76021 6.35758 5.22183C8.06688 3.68345 10.2447 2.63581 12.6156 2.21137C14.9864 1.78693 17.4439 2.00477 19.6772 2.83733C21.9106 3.66989 23.8194 5.07979 25.1624 6.88873C26.5054 8.69767 27.2222 10.8244 27.2222 13C27.2222 13.2652 27.3393 13.5196 27.5476 13.7071C27.756 13.8946 28.0386 14 28.3333 14C28.628 14 28.9106 13.8946 29.119 13.7071C29.3274 13.5196 29.4444 13.2652 29.4444 13C29.4444 10.4288 28.5973 7.91543 27.0101 5.77759C25.4229 3.63975 23.167 1.97351 20.5276 0.989572C17.8883 0.0056327 14.984 -0.251811 12.182 0.249797C9.38007 0.751405 6.80632 1.98953 4.78623 3.80762C2.76614 5.6257 1.39044 7.94208 0.833094 10.4638C0.275752 12.9856 0.561801 15.5995 1.65507 17.9749C2.74833 20.3503 4.59971 22.3807 6.97509 23.8091C9.35047 25.2376 12.1432 26 15 26C15.2947 26 15.5773 25.8946 15.7857 25.7071C15.994 25.5196 16.1111 25.2652 16.1111 25C16.1111 24.7348 15.994 24.4804 15.7857 24.2929C15.5773 24.1054 15.2947 24 15 24ZM29.4069 24.7425C29.4477 24.8703 29.4596 25.0041 29.4422 25.1362C29.4248 25.2682 29.3783 25.3958 29.3054 25.5114C29.2325 25.6271 29.1347 25.7285 29.0178 25.8097C28.9009 25.891 28.7671 25.9504 28.6243 25.9846C28.4816 26.0187 28.3327 26.0269 28.1863 26.0087C28.04 25.9904 27.8992 25.9461 27.7721 25.8783C27.6451 25.8104 27.5343 25.7205 27.4463 25.6137C27.3583 25.5069 27.2949 25.3854 27.2597 25.2563C26.8667 23.9275 25.4805 23 23.8889 23C22.2972 23 20.9111 23.9275 20.518 25.2563C20.4553 25.4694 20.3159 25.6579 20.1218 25.7924C19.9276 25.927 19.6895 25.9999 19.4444 26C19.3479 25.9998 19.2517 25.9884 19.1583 25.9663C18.8736 25.898 18.6307 25.7307 18.483 25.5012C18.3353 25.2717 18.295 24.9988 18.3708 24.7425C18.7312 23.5381 19.5788 22.4984 20.7472 21.8275C20.1252 21.2683 19.7014 20.5555 19.5295 19.7795C19.3576 19.0035 19.4453 18.199 19.7816 17.4678C20.1178 16.7366 20.6875 16.1117 21.4185 15.672C22.1495 15.2322 23.0089 14.9975 23.8882 14.9975C24.7674 14.9975 25.6269 15.2322 26.3579 15.672C27.0889 16.1117 27.6585 16.7366 27.9948 17.4678C28.331 18.199 28.4188 19.0035 28.2469 19.7795C28.075 20.5555 27.6512 21.2683 27.0292 21.8275C28.1981 22.4982 29.0462 23.5379 29.4069 24.7425ZM21.6667 19C21.6667 19.3956 21.797 19.7822 22.0412 20.1111C22.2854 20.44 22.6324 20.6964 23.0385 20.8478C23.4445 20.9991 23.8913 21.0387 24.3224 20.9616C24.7535 20.8844 25.1494 20.6939 25.4602 20.4142C25.771 20.1345 25.9827 19.7781 26.0684 19.3902C26.1541 19.0022 26.1101 18.6001 25.9419 18.2346C25.7738 17.8692 25.4889 17.5568 25.1235 17.3371C24.758 17.1173 24.3284 17 23.8889 17C23.2995 17 22.7343 17.2107 22.3175 17.5858C21.9008 17.9609 21.6667 18.4696 21.6667 19Z" fill="currentColor"/>
</svg>
