<svg width="20" height="26" viewBox="0 0 20 26" fill="none" xmlns="http://www.w3.org/2000/svg">
<path d="M19.8115 23.5034C18.361 20.2122 16.1258 17.8522 13.5172 16.7334C14.8075 15.7252 15.81 14.189 16.3707 12.3606C16.9314 10.5323 17.0194 8.5129 16.6211 6.6126C16.2227 4.71229 15.3601 3.03614 14.1657 1.84156C12.9713 0.64697 11.5112 0 10.0096 0C8.50792 0 7.04778 0.64697 5.8534 1.84156C4.65901 3.03614 3.79642 4.71229 3.39808 6.6126C2.99974 8.5129 3.08769 10.5323 3.64841 12.3606C4.20913 14.189 5.21163 15.7252 6.50195 16.7334C3.89338 17.8509 1.65814 20.2109 0.207661 23.5034C0.154469 23.6172 0.119188 23.7439 0.103898 23.8759C0.088608 24.0079 0.0936194 24.1426 0.118636 24.2721C0.143654 24.4015 0.18817 24.5231 0.249558 24.6296C0.310946 24.7361 0.387964 24.8253 0.476066 24.8921C0.564168 24.9589 0.66157 25.0019 0.762526 25.0185C0.863481 25.035 0.965945 25.0249 1.06387 24.9887C1.1618 24.9525 1.2532 24.8909 1.3327 24.8075C1.41219 24.7242 1.47816 24.6208 1.52671 24.5034C3.32099 20.4334 6.49242 18.0034 10.0096 18.0034C13.5267 18.0034 16.6981 20.4334 18.4924 24.5034C18.541 24.6208 18.6069 24.7242 18.6864 24.8075C18.7659 24.8909 18.8573 24.9525 18.9553 24.9887C19.0532 25.0249 19.1556 25.035 19.2566 25.0185C19.3576 25.0019 19.455 24.9589 19.5431 24.8921C19.6312 24.8253 19.7082 24.7361 19.7696 24.6296C19.831 24.5231 19.8755 24.4015 19.9005 24.2721C19.9255 24.1426 19.9305 24.0079 19.9152 23.8759C19.8999 23.7439 19.8647 23.6172 19.8115 23.5034ZM4.67623 9.0034C4.67623 7.61893 4.98903 6.26555 5.57506 5.11441C6.1611 3.96327 6.99405 3.06606 7.96859 2.53624C8.94313 2.00643 10.0155 1.86781 11.05 2.1379C12.0846 2.408 13.0349 3.07469 13.7808 4.05365C14.5267 5.03262 15.0346 6.2799 15.2404 7.63777C15.4462 8.99564 15.3406 10.4031 14.9369 11.6822C14.5333 12.9613 13.8497 14.0545 12.9726 14.8237C12.0955 15.5929 11.0644 16.0034 10.0096 16.0034C8.59554 16.0014 7.23987 15.2633 6.24 13.951C5.24013 12.6386 4.67775 10.8593 4.67623 9.0034Z" fill="currentColor"/>
</svg>
