<svg width="24" height="24" viewBox="0 0 24 24" fill="none" xmlns="http://www.w3.org/2000/svg">
<path d="M12 11C14.7614 11 17 8.76142 17 6C17 3.23858 14.7614 1 12 1C9.23858 1 7 3.23858 7 6C7 8.76142 9.23858 11 12 11ZM12 2C14.2091 2 16 3.79086 16 6C16 8.20914 14.2091 10 12 10C9.79086 10 8 8.20914 8 6C8 3.79086 9.79086 2 12 2ZM5 13C6.65685 13 8 11.6569 8 10C8 8.34315 6.65685 7 5 7C3.34315 7 2 8.34315 2 10C2 11.6569 3.34315 13 5 13ZM5 8C6.10457 8 7 8.89543 7 10C7 11.1046 6.10457 12 5 12C3.89543 12 3 11.1046 3 10C3 8.89543 3.89543 8 5 8ZM19 13C20.6569 13 22 11.6569 22 10C22 8.34315 20.6569 7 19 7C17.3431 7 16 8.34315 16 10C16 11.6569 17.3431 13 19 13ZM19 8C20.1046 8 21 8.89543 21 10C21 11.1046 20.1046 12 19 12C17.8954 12 17 11.1046 17 10C17 8.89543 17.8954 8 19 8ZM12 13C16.4183 13 20 15.2386 20 21.5C20 21.7761 19.7761 22 19.5 22H4.5C4.22386 22 4 21.7761 4 21.5C4 15.2386 7.58172 13 12 13ZM5.005 21H18.995C18.817 15.98 15.888 14 12 14C8.112 14 5.183 15.98 5.005 21ZM0 19.5C0 16.389 1.711 14.5 4.5 14.5C4.77614 14.5 5 14.7239 5 15C5 15.2761 4.77614 15.5 4.5 15.5C2.264 15.5 1 16.936 1 19.5H3C3.27614 19.5 3.5 19.7239 3.5 20C3.5 20.2761 3.27614 20.5 3 20.5H0.5C0.223858 20.5 0 20.2761 0 20V19.5ZM19.5 15.5C19.2239 15.5 19 15.2761 19 15C19 14.7239 19.2239 14.5 19.5 14.5C22.289 14.5 24 16.389 24 19.5V20C24 20.2761 23.7761 20.5 23.5 20.5H21C20.7239 20.5 20.5 20.2761 20.5 20C20.5 19.7239 20.7239 19.5 21 19.5H23C23 16.936 21.736 15.5 19.5 15.5Z" fill="#636363"/>
</svg>