<svg width="24" height="24" viewBox="0 0 24 24" fill="none" xmlns="http://www.w3.org/2000/svg">
<path d="M12 12C15.309 12 18 9.309 18 6C18 2.691 15.309 0 12 0C8.691 0 6 2.691 6 6C6 9.309 8.691 12 12 12ZM12 1C14.757 1 17 3.243 17 6C17 8.757 14.757 11 12 11C9.243 11 7 8.757 7 6C7 3.243 9.243 1 12 1ZM21 23V23.5C21 23.776 20.776 24 20.5 24C20.224 24 14 24 14 24V23H20C20 16 16.411 14 12 14C7.589 14 4 16 4 23H14V24C14 24 3.776 24 3.5 24C3.224 24 3 23.776 3 23.5V23C3 15.5 7.038 13 12 13C16.962 13 21 15.5 21 23Z" fill="#636363"/>
</svg>
